<?xml version="1.0" standalone="no"?>
<!DOCTYPE svg PUBLIC "-//W3C//DTD SVG 20010904//EN"
 "http://www.w3.org/TR/2001/REC-SVG-20010904/DTD/svg10.dtd">
<svg version="1.0" xmlns="http://www.w3.org/2000/svg"
 width="800.000000pt" height="800.000000pt" viewBox="0 0 800.000000 800.000000"
 preserveAspectRatio="xMidYMid meet">

<g transform="translate(0.000000,800.000000) scale(0.100000,-0.100000)"
fill="#000000" stroke="none">
<path d="M722 4497 l-492 -492 492 -492 493 -492 287 282 286 282 -107 112
-108 111 -177 -176 -176 -177 -197 198 -198 197 198 0 197 0 0 155 0 155 -197
0 -198 0 197 197 198 198 174 -174 c95 -95 178 -172 182 -170 5 2 55 52 111
110 l103 105 -288 281 -289 281 -491 -491z"/>
<path d="M2290 4005 l0 -545 535 0 535 0 0 125 0 125 -380 0 -380 0 0 85 0 85
369 0 c204 0 372 4 375 9 3 4 3 61 -1 125 l-6 116 -369 0 -368 0 0 85 0 85
380 0 380 0 0 125 0 125 -535 0 -535 0 0 -545z"/>
<path d="M3470 4431 c0 -115 1 -119 23 -125 12 -3 122 -6 245 -6 l222 0 0
-420 0 -420 155 0 155 0 0 420 0 420 223 0 c122 0 232 3 245 6 21 6 22 10 22
125 l0 119 -645 0 -645 0 0 -119z"/>
<path d="M4860 4005 l0 -545 145 0 145 0 0 292 0 291 93 -124 c51 -68 146
-197 211 -287 65 -89 123 -161 129 -159 6 2 100 124 209 273 109 148 205 276
213 284 13 12 15 -22 15 -278 l0 -292 145 0 145 0 0 545 0 545 -147 0 -148 -1
-99 -137 c-191 -263 -327 -442 -335 -442 -5 0 -105 131 -221 290 l-213 290
-143 0 -144 0 0 -545z"/>
<path d="M6846 4438 c-29 -62 -118 -250 -198 -418 -216 -452 -258 -542 -258
-551 0 -5 69 -9 153 -9 l152 0 48 95 47 95 283 0 282 0 48 -95 47 -95 155 0
c102 0 155 4 155 10 0 6 -99 217 -221 468 -122 251 -237 492 -257 535 l-35 77
-174 0 -174 0 -53 -112z m355 -426 c27 -63 49 -115 49 -116 0 -3 -344 6 -348
9 -4 4 69 175 129 304 l42 91 40 -87 c21 -49 61 -139 88 -201z"/>
</g>
</svg>
