<?xml version="1.0" standalone="no"?>
<!DOCTYPE svg PUBLIC "-//W3C//DTD SVG 20010904//EN"
 "http://www.w3.org/TR/2001/REC-SVG-20010904/DTD/svg10.dtd">
<svg version="1.0" xmlns="http://www.w3.org/2000/svg"
 width="1875.000000pt" height="899.000000pt" viewBox="0 0 1875.000000 899.000000"
 preserveAspectRatio="xMidYMid meet">

<g transform="translate(0.000000,899.000000) scale(0.100000,-0.100000)"
fill="#000000" stroke="none">
<path d="M230 8969 c-64 -39 -129 -99 -180 -167 l-50 -67 0 -4241 0 -4242 44
-58 c49 -66 100 -117 165 -163 l44 -31 9122 0 9122 0 39 26 c52 34 137 118
180 175 l34 47 0 4245 0 4245 -43 58 c-50 67 -116 130 -176 168 l-41 26 -9112
0 -9113 0 -35 -21z m18071 -96 c173 -59 298 -194 344 -369 13 -51 15 -521 15
-4014 0 -4311 4 -3995 -56 -4119 -36 -73 -151 -189 -224 -224 -30 -14 -82 -33
-115 -42 -53 -13 -994 -15 -8885 -15 -7836 0 -8832 2 -8889 15 -196 47 -358
217 -390 412 -9 50 -11 1118 -9 4018 l3 3950 22 59 c72 186 222 314 406 345
29 5 3963 8 8882 7 l8830 -1 66 -22z"/>
<path d="M9273 7908 c3 -13 24 -75 46 -138 58 -167 76 -262 75 -410 0 -150
-16 -233 -89 -492 -138 -481 -148 -731 -39 -966 116 -252 356 -433 594 -449
86 -6 216 14 302 47 176 66 343 234 442 445 82 174 115 320 123 541 7 202 -8
314 -64 489 -193 599 -669 955 -1278 955 -117 0 -117 0 -112 -22z"/>
<path d="M9065 7860 c-15 -16 -20 -47 -26 -169 -10 -177 -24 -253 -74 -386
-52 -138 -134 -299 -293 -575 -75 -129 -161 -285 -192 -346 -200 -390 -255
-743 -159 -1028 48 -143 100 -227 214 -342 91 -92 110 -106 205 -152 132 -64
230 -86 375 -85 125 0 209 14 489 84 254 63 380 76 548 59 68 -7 134 -13 148
-14 22 -1 31 11 76 102 66 132 142 330 193 508 23 78 41 144 41 148 0 4 -30
-20 -67 -54 -130 -119 -285 -207 -443 -253 -111 -32 -306 -31 -410 1 -249 79
-450 255 -566 497 -69 142 -79 194 -78 385 0 205 15 292 100 587 68 239 88
334 104 488 16 159 -10 347 -70 508 -21 56 -22 57 -59 57 -25 0 -44 -7 -56
-20z"/>
<path d="M8855 7791 c-128 -46 -250 -118 -550 -326 -271 -188 -416 -275 -548
-331 -270 -114 -663 -169 -1034 -145 -97 7 -177 10 -179 9 -2 -2 36 -44 84
-93 202 -208 338 -445 407 -710 48 -187 58 -288 60 -620 1 -249 5 -324 18
-384 36 -154 93 -292 185 -439 l45 -73 276 2 276 3 80 -28 c44 -15 146 -63
226 -107 454 -246 884 -415 1255 -493 66 -13 215 -38 332 -55 243 -36 345 -65
430 -121 98 -66 187 -180 234 -301 13 -32 26 -59 30 -59 20 0 360 118 501 174
220 88 317 133 317 148 0 19 -73 150 -144 258 -243 371 -576 614 -947 690 -87
18 -127 21 -244 17 -131 -4 -156 -9 -380 -65 -282 -72 -390 -92 -494 -92 -419
0 -782 278 -915 700 -86 270 -67 524 63 872 73 196 119 284 326 623 194 319
286 539 345 829 31 151 32 148 -55 117z"/>
<path d="M5408 7165 c-306 -50 -598 -248 -773 -524 l-57 -90 -113 1 c-91 2
-118 -1 -139 -15 -14 -10 -26 -25 -26 -34 0 -28 66 -79 172 -133 57 -29 104
-54 105 -54 2 -1 14 -83 28 -181 28 -197 49 -261 124 -389 121 -205 254 -301
639 -459 277 -114 402 -208 506 -382 55 -92 91 -110 241 -125 199 -20 413 8
514 67 145 85 207 196 291 528 49 194 64 316 57 469 -17 365 -159 681 -420
933 -164 158 -343 266 -547 331 -198 63 -431 85 -602 57z"/>
<path d="M11209 6940 c-9 -5 -26 -32 -38 -59 -40 -93 -102 -146 -206 -176 -31
-9 -72 -15 -91 -13 l-34 4 0 -171 c0 -520 -111 -1044 -319 -1511 l-69 -155 91
-45 c385 -194 696 -500 854 -841 18 -40 39 -73 45 -73 14 0 236 99 363 163
232 116 518 290 687 419 242 183 610 541 656 636 14 29 14 34 2 43 -22 15
-113 2 -273 -37 -233 -57 -408 -85 -567 -91 -127 -4 -149 -2 -179 14 -82 43
-95 104 -57 265 43 178 23 198 -150 154 -115 -30 -156 -25 -200 27 -59 70 -68
105 -75 322 -5 135 -13 219 -24 260 -24 87 -87 211 -145 282 -45 55 -136 139
-177 162 -14 7 -13 17 8 77 30 89 30 186 -1 266 -28 75 -62 101 -101 78z m246
-1659 c49 -22 95 -74 95 -106 0 -33 -44 -65 -89 -65 -46 1 -109 30 -142 66
-33 36 -39 53 -28 82 16 43 96 55 164 23z"/>
<path d="M4999 5278 c-84 -181 -221 -320 -509 -516 -120 -81 -223 -181 -305
-297 -143 -201 -236 -467 -247 -709 l-3 -70 385 -67 c212 -38 394 -69 405 -69
19 0 23 11 39 96 36 195 121 386 224 506 79 94 495 438 778 644 l29 22 -33 66
c-69 135 -199 227 -457 321 -71 26 -161 64 -200 84 -38 20 -73 37 -76 39 -3 1
-16 -21 -30 -50z"/>
<path d="M6965 5090 c-56 -112 -106 -180 -183 -251 -129 -120 -272 -171 -477
-170 -66 0 -158 7 -205 15 -132 24 -130 26 -41 -71 228 -249 330 -425 375
-645 26 -125 16 -369 -20 -512 l-6 -26 470 0 c440 0 471 1 476 18 2 9 24 109
47 222 34 168 42 226 42 320 1 179 -30 271 -209 610 -119 224 -174 352 -208
477 l-23 88 -38 -75z"/>
<path d="M8548 4153 c-193 -232 -325 -423 -413 -594 -30 -59 -55 -112 -55
-118 0 -13 144 -14 602 -4 l315 6 33 66 c57 116 141 233 254 348 60 63 107
115 105 116 -2 2 -58 16 -124 31 -175 41 -372 109 -514 177 -68 32 -125 59
-127 59 -2 0 -36 -39 -76 -87z"/>
<path d="M2617 1818 c-136 -601 -247 -1099 -247 -1105 0 -19 876 -19 882 -1 3
7 42 180 88 385 l84 372 555 4 c536 3 559 4 633 25 400 114 680 400 727 745
41 295 -135 524 -486 634 l-88 28 -950 3 -951 3 -247 -1093z m1689 555 c52
-28 90 -72 105 -123 11 -35 9 -44 -15 -94 -29 -60 -83 -114 -145 -146 -87 -44
-139 -50 -433 -50 -166 0 -278 4 -278 9 0 6 25 102 55 215 30 112 55 207 55
211 0 3 138 5 308 3 294 -3 309 -4 348 -25z"/>
<path d="M5273 1813 c-543 -603 -989 -1100 -991 -1105 -2 -4 206 -8 461 -8
l466 0 698 822 c562 661 698 817 701 797 13 -126 51 -193 135 -233 75 -37 168
-37 292 0 50 14 98 29 108 32 17 4 16 0 -6 -44 -64 -127 -103 -286 -91 -365
10 -61 54 -105 122 -125 101 -30 377 -8 567 44 17 5 30 12 29 16 -1 4 -120
290 -265 637 l-264 629 -487 0 -487 0 -988 -1097z"/>
<path d="M8025 2318 c-76 -326 -142 -608 -146 -626 l-7 -33 41 6 c72 12 339
82 410 108 37 13 67 22 67 20 0 -3 -27 -44 -60 -92 -224 -328 -575 -636 -1039
-915 l-143 -86 506 0 c278 0 506 3 506 6 0 3 -11 20 -24 37 -26 35 -76 131
-76 146 0 5 29 -8 65 -30 247 -150 665 -240 1040 -225 632 27 1023 147 1302
401 144 130 271 350 338 585 39 134 79 326 91 428 4 40 10 60 16 54 6 -6 175
-322 378 -703 l368 -694 546 -3 c300 -1 546 0 546 3 0 5 528 2158 536 2188 5
16 -19 17 -399 17 l-405 0 -14 -62 c-100 -440 -314 -1348 -318 -1348 -3 0
-178 318 -390 705 l-385 704 -570 1 -571 0 -148 -612 c-82 -337 -161 -648
-176 -690 -69 -191 -210 -317 -422 -379 -92 -26 -340 -38 -442 -20 -141 25
-233 79 -279 165 -19 35 -22 56 -22 146 1 100 8 137 148 735 81 347 150 636
152 643 3 9 -89 12 -438 12 l-443 0 -139 -592z"/>
<path d="M13316 2898 c4 -7 209 -331 455 -720 l447 -707 -104 -373 c-57 -205
-104 -379 -104 -385 0 -10 96 -13 445 -13 l444 0 12 43 c6 23 50 196 98 383
l86 342 715 637 c393 351 757 676 808 721 l92 84 -524 0 -524 0 -408 -420
c-224 -231 -410 -420 -413 -420 -4 0 -101 189 -216 420 l-210 420 -553 0
c-440 0 -552 -3 -546 -12z"/>
<path d="M6217 1538 c10 -55 54 -126 95 -155 79 -54 196 -39 266 35 30 32 61
98 62 130 l0 22 -215 0 -214 0 6 -32z"/>
</g>
</svg>
