<?xml version="1.0" standalone="no"?>
<!DOCTYPE svg PUBLIC "-//W3C//DTD SVG 20010904//EN"
 "http://www.w3.org/TR/2001/REC-SVG-20010904/DTD/svg10.dtd">
<svg version="1.0" xmlns="http://www.w3.org/2000/svg"
 width="1079.000000pt" height="1079.000000pt" viewBox="0 0 1079.000000 1079.000000"
 preserveAspectRatio="xMidYMid meet">

<g transform="translate(0.000000,1079.000000) scale(0.100000,-0.100000)"
fill="#000000" stroke="none">
<path d="M2490 5400 l0 -3460 2910 0 2910 0 0 3460 0 3460 -2910 0 -2910 0 0
-3460z m2092 2968 c3 -171 3 -173 20 -141 30 54 127 151 202 201 39 26 110 61
156 77 l85 30 1473 3 1472 2 0 -254 0 -255 -1367 -4 c-1270 -3 -1373 -4 -1443
-21 -293 -69 -468 -216 -569 -475 l-26 -66 -5 -1507 -5 -1508 -875 0 c-481 0
-879 0 -885 0 -7 0 -10 689 -10 2045 l0 2045 887 0 888 0 2 -172z m3408 -2337
c0 -1148 -4 -1756 -10 -1808 -39 -287 -210 -507 -443 -569 -44 -12 -421 -14
-2389 -14 l-2338 0 0 255 0 255 2236 0 c1671 0 2247 3 2282 12 90 22 153 115
169 245 l6 53 -1144 2 c-1060 3 -1148 5 -1204 21 -138 41 -230 110 -280 213
-55 113 -55 103 -55 1397 1 1306 0 1292 59 1412 39 79 111 147 204 190 138 66
66 63 1555 64 l1352 1 0 -1729z m-4525 -2862 c81 -23 125 -96 125 -211 l0 -58
-80 0 -80 0 0 30 c0 48 -20 79 -55 86 -18 3 -109 4 -203 2 -136 -2 -174 -6
-186 -18 -10 -10 -15 -41 -17 -100 l-2 -85 196 -3 197 -2 0 -75 0 -75 -197 0
-198 0 3 -180 3 -180 -83 0 -83 0 5 382 c3 264 9 389 17 403 19 34 59 66 100
80 48 18 478 21 538 4z m880 -8 c79 -36 105 -85 105 -192 l0 -70 -77 3 -78 3
-6 43 c-3 23 -11 48 -18 55 -13 13 -343 24 -387 13 -55 -14 -54 -10 -54 -377
l0 -339 -80 0 -80 0 0 358 c0 230 4 371 11 397 13 46 66 101 112 114 18 5 140
10 272 10 213 0 244 -2 280 -18z m904 -14 c72 -48 81 -80 81 -299 l0 -188
-321 0 -321 0 3 -83 c3 -52 9 -90 18 -100 12 -15 40 -17 222 -17 234 0 239 1
239 71 l0 39 81 0 81 0 -3 -78 c-5 -94 -31 -141 -95 -172 -37 -18 -61 -20
-302 -20 -289 0 -308 3 -355 59 -44 53 -48 89 -45 399 3 250 5 292 21 322 17
35 70 79 111 92 12 3 138 6 282 5 l261 -2 42 -28z m870 0 c79 -53 81 -59 81
-479 l0 -366 -76 -4 c-42 -2 -78 -1 -80 1 -2 2 -4 157 -4 343 0 328 -1 339
-21 359 -19 19 -30 20 -208 17 -141 -2 -192 -6 -204 -17 -15 -12 -17 -50 -17
-357 l0 -344 -80 0 -81 0 3 383 3 384 29 37 c54 72 77 77 362 74 l251 -3 42
-28z m862 23 c20 -6 51 -23 67 -38 59 -51 62 -71 62 -397 0 -328 -2 -338 -63
-392 -58 -51 -86 -55 -362 -51 -236 3 -252 4 -292 25 -23 13 -52 37 -65 55
-23 33 -23 37 -26 338 -2 168 0 319 3 337 8 43 50 92 100 114 35 16 69 19 290
19 138 0 266 -5 286 -10z m881 0 c44 -13 93 -51 113 -89 7 -15 15 -61 16 -102
l2 -74 -81 -3 -82 -3 0 39 c0 25 -7 46 -20 60 -20 21 -28 22 -211 22 -188 0
-190 0 -214 -25 -33 -32 -36 -120 -6 -156 19 -24 22 -24 258 -29 239 -5 240
-5 280 -32 65 -43 75 -76 71 -236 -3 -152 -9 -166 -77 -213 -34 -24 -39 -24
-305 -27 -305 -3 -312 -1 -369 70 -27 33 -31 48 -35 118 l-5 80 80 0 80 0 6
-42 c3 -23 14 -48 23 -55 13 -10 69 -13 209 -13 235 0 235 0 235 99 0 102 8
99 -265 103 -262 3 -286 9 -333 81 -25 37 -27 50 -30 160 -3 94 0 129 13 163
18 47 64 89 112 104 41 12 491 12 535 0z"/>
<path d="M6923 7276 c-84 -27 -132 -65 -181 -146 l-27 -45 -3 -939 c-2 -643 1
-956 8 -990 21 -97 102 -181 204 -210 43 -13 107 -16 315 -16 l261 0 0 1180 0
1180 -267 -1 c-191 0 -280 -4 -310 -13z"/>
<path d="M4732 3010 c-12 -5 -27 -21 -32 -35 -15 -39 -13 -152 3 -157 6 -2
114 -5 240 -7 l227 -3 0 84 c0 128 10 123 -222 125 -106 1 -203 -2 -216 -7z"/>
<path d="M6505 3013 c-43 -10 -45 -25 -45 -276 0 -145 4 -246 10 -258 10 -18
23 -19 229 -19 191 0 220 2 232 17 11 13 14 68 14 259 0 220 -2 245 -18 261
-16 16 -40 18 -210 20 -106 1 -201 -1 -212 -4z"/>
</g>
</svg>
