<?xml version="1.0" standalone="no"?>
<!DOCTYPE svg PUBLIC "-//W3C//DTD SVG 20010904//EN"
 "http://www.w3.org/TR/2001/REC-SVG-20010904/DTD/svg10.dtd">
<svg version="1.0" xmlns="http://www.w3.org/2000/svg"
 width="1280.000000pt" height="459.000000pt" viewBox="0 0 1280.000000 459.000000"
 preserveAspectRatio="xMidYMid meet">

<g transform="translate(0.000000,459.000000) scale(0.100000,-0.100000)"
fill="#000000" stroke="none">
<path d="M180 2270 l0 -2070 785 0 785 0 0 2070 0 2070 -785 0 -785 0 0 -2070z"/>
<path d="M2030 3161 c0 -740 4 -1182 10 -1186 5 -3 7 -11 5 -18 -3 -7 100
-403 229 -882 l234 -870 891 -3 c490 -1 891 0 891 2 0 2 -45 104 -99 227 -54
123 -159 361 -234 529 -74 168 -194 440 -267 605 -73 165 -157 353 -186 419
l-52 118 60 72 c218 258 334 645 300 999 -59 614 -465 1081 -1006 1156 -43 6
-233 11 -427 11 l-349 0 0 -1179z"/>
<path d="M5266 4329 c-528 -61 -945 -477 -1042 -1039 -24 -141 -15 -388 20
-528 112 -449 440 -796 857 -907 134 -35 281 -45 717 -45 l382 0 0 -805 0
-805 339 0 c187 0 374 5 417 11 514 71 928 489 1018 1028 20 120 20 318 1 441
-32 192 -124 411 -236 560 -187 248 -452 414 -743 465 -71 12 -178 15 -532 15
l-444 0 0 810 0 810 -342 -1 c-189 -1 -374 -5 -412 -10z"/>
<path d="M8550 2270 l0 -2070 780 0 780 0 0 2070 0 2070 -780 0 -780 0 0
-2070z"/>
<path d="M6200 3616 l0 -716 895 0 895 0 0 53 c0 135 -49 353 -114 507 -150
354 -460 650 -818 781 -188 69 -265 81 -575 86 l-283 5 0 -716z"/>
<path d="M10360 3154 l0 -1175 216 -717 c119 -394 239 -795 268 -889 l51 -173
872 0 872 0 -13 32 c-16 37 -542 1303 -816 1961 -100 241 -180 445 -177 455 3
12 460 1493 513 1665 5 16 -42 17 -890 17 l-896 0 0 -1176z"/>
<path d="M4214 1608 c3 -13 7 -64 11 -114 20 -316 193 -671 441 -903 197 -184
426 -304 692 -362 82 -18 142 -22 380 -26 l282 -5 0 716 0 716 -905 0 -905 0
4 -22z"/>
</g>
</svg>
