<?xml version="1.0" standalone="no"?>
<!DOCTYPE svg PUBLIC "-//W3C//DTD SVG 20010904//EN"
 "http://www.w3.org/TR/2001/REC-SVG-20010904/DTD/svg10.dtd">
<svg version="1.0" xmlns="http://www.w3.org/2000/svg"
 width="600.000000pt" height="600.000000pt" viewBox="0 0 600.000000 600.000000"
 preserveAspectRatio="xMidYMid meet">

<g transform="translate(0.000000,600.000000) scale(0.100000,-0.100000)"
fill="#000000" stroke="none">
<path d="M653 5373 c-10 -3 -13 -54 -13 -204 l0 -199 30 0 30 0 0 85 0 85 36
0 c65 0 70 -7 103 -127 11 -39 15 -43 42 -43 27 0 30 3 23 23 -4 12 -13 44
-20 72 -7 27 -22 61 -32 75 -19 25 -19 25 9 48 57 47 44 143 -24 175 -33 16
-154 23 -184 10z m167 -63 c48 -48 4 -120 -75 -120 l-45 0 0 70 0 70 50 0 c37
0 55 -5 70 -20z"/>
<path d="M1420 5175 l0 -205 116 0 c114 0 115 0 112 23 -3 20 -9 22 -85 25
l-83 3 0 69 0 70 75 0 c73 0 75 1 75 25 0 24 -2 25 -75 25 l-75 0 0 60 0 60
80 0 c79 0 80 0 80 25 l0 25 -110 0 -110 0 0 -205z"/>
<path d="M2120 5355 c0 -24 3 -25 60 -25 l60 0 0 -180 0 -180 30 0 30 0 0 180
0 180 60 0 c57 0 60 1 60 25 l0 25 -150 0 -150 0 0 -25z"/>
<path d="M2900 5175 l0 -205 115 0 115 0 0 25 c0 25 -1 25 -85 25 l-85 0 0 70
0 70 81 0 c78 0 80 1 77 23 -3 20 -9 22 -80 25 l-78 3 0 59 0 60 86 0 c83 0
85 1 82 23 -3 21 -7 22 -115 25 l-113 3 0 -206z"/>
<path d="M3640 5175 l0 -205 25 0 25 0 0 161 0 162 63 -104 c129 -213 134
-219 167 -219 l30 0 0 206 0 205 -27 -3 -28 -3 1 -158 1 -158 -25 43 c-14 24
-59 96 -99 161 -67 106 -77 117 -104 117 l-29 0 0 -205z"/>
<path d="M4480 5175 l0 -205 116 0 c114 0 115 0 112 23 -3 20 -9 22 -85 25
l-83 3 0 69 0 70 76 0 c72 0 75 1 72 23 -3 20 -9 22 -75 25 l-73 3 0 59 0 60
80 0 c79 0 80 0 80 25 l0 25 -110 0 -110 0 0 -205z"/>
<path d="M5234 5361 c-36 -22 -59 -78 -49 -113 11 -37 46 -68 102 -93 84 -38
104 -94 47 -132 -23 -15 -32 -15 -129 -1 -14 2 -21 -3 -23 -19 -7 -46 140 -58
196 -16 15 11 33 38 41 60 13 36 12 43 -5 79 -15 32 -32 45 -87 72 -79 39 -99
67 -74 106 19 28 46 35 101 23 43 -9 41 -10 50 19 5 17 2 23 -16 28 -48 12
-123 6 -154 -13z"/>
<path d="M2730 4013 c-707 -38 -1349 -205 -1975 -513 -110 -55 -257 -133 -327
-175 l-128 -75 0 -1475 0 -1475 2700 0 2700 0 0 1460 0 1459 -137 82 c-711
424 -1467 657 -2293 709 -151 9 -404 11 -540 3z m2695 -1013 c82 -19 113 -104
58 -159 -16 -14 -68 -49 -118 -76 -142 -80 -245 -187 -273 -285 -5 -19 -103
-322 -218 -673 l-209 -637 -877 0 -876 0 -32 95 -32 96 -106 -3 -107 -3 -33
-63 c-46 -86 -131 -175 -200 -209 l-57 -28 -433 -3 c-237 -1 -432 1 -432 5 0
4 16 28 36 53 l36 45 -499 5 -498 5 -3 613 c-2 596 -2 614 18 673 40 118 130
228 230 283 95 52 140 56 687 56 l503 0 2 -347 3 -348 121 345 121 345 860 3
861 2 25 -82 c14 -46 47 -154 73 -240 26 -87 50 -158 53 -158 4 0 40 98 81
218 41 119 87 242 101 272 46 96 120 172 194 198 38 13 883 15 940 2z"/>
<path d="M4523 2848 c-62 -20 -79 -51 -167 -309 -192 -561 -259 -750 -266
-742 -4 4 -51 163 -104 353 -54 190 -106 375 -117 413 l-20 67 -254 0 c-140 0
-255 -1 -255 -3 0 -10 341 -1300 346 -1308 3 -5 187 -9 439 -9 l433 0 140 423
c77 232 161 494 187 582 77 262 159 413 276 505 l51 40 -329 -1 c-193 -1 -341
-5 -360 -11z"/>
<path d="M906 2610 c-95 -37 -167 -134 -202 -272 -29 -111 -1 -218 77 -303 23
-25 116 -100 206 -166 94 -70 170 -133 178 -149 38 -73 2 -128 -75 -117 -28 3
-85 36 -204 116 -91 61 -168 111 -171 111 -3 0 -5 -115 -5 -255 l0 -255 473 0
473 0 45 28 c105 67 159 178 160 328 2 140 -50 243 -163 325 -184 132 -278
207 -287 227 -17 35 -13 66 10 96 16 21 29 26 63 26 37 0 61 -13 191 -101 83
-55 153 -103 158 -105 4 -3 7 105 7 240 l0 246 -442 0 c-413 -1 -446 -2 -492
-20z"/>
<path d="M2331 2608 c-5 -13 -93 -275 -196 -583 -185 -552 -228 -661 -299
-760 -20 -27 -36 -54 -36 -58 0 -5 114 -7 253 -5 218 3 256 5 284 21 74 40
142 136 168 237 l11 45 225 3 225 2 32 -100 33 -100 240 0 c131 0 239 3 239 8
0 4 -77 301 -172 660 l-172 652 -413 0 -413 0 -9 -22z m485 -606 c50 -130 90
-240 87 -244 -6 -10 -340 -10 -346 0 -3 4 28 108 68 232 41 124 76 234 79 245
3 10 8 16 12 12 4 -4 49 -114 100 -245z"/>
</g>
</svg>
