<?xml version="1.0" encoding="UTF-8"?>
<svg xmlns="http://www.w3.org/2000/svg" xmlns:xlink="http://www.w3.org/1999/xlink" width="1092.7pt" height="538.1pt" viewBox="0 0 1092.7 538.1" version="1.1">
<defs>
<clipPath id="clip1">
  <path d="M 0 0 L 1092.699219 0 L 1092.699219 538.101563 L 0 538.101563 Z M 0 0 "/>
</clipPath>
</defs>
<g id="surface1">
<g clip-path="url(#clip1)" clip-rule="nonzero">
<path style=" stroke:none;fill-rule:evenodd;fill:rgb(67.381287%,77.734375%,24.31488%);fill-opacity:1;" d="M 0.0195313 538.023438 L 1092.78125 538.023438 L 1092.78125 -0.046875 L 0.0195313 -0.046875 Z M 0.0195313 538.023438 "/>
</g>
<path style=" stroke:none;fill-rule:evenodd;fill:rgb(0%,0%,0%);fill-opacity:1;" d="M 735.988281 300.609375 L 190.265625 300.609375 L 269.621094 423.429688 Z M 735.988281 300.609375 "/>
<path style=" stroke:none;fill-rule:evenodd;fill:rgb(0%,0%,0%);fill-opacity:1;" d="M 309.777344 106.570313 L 65.015625 106.570313 L 92.953125 149.996094 L 309.777344 149.996094 Z M 309.777344 106.570313 "/>
<path style=" stroke:none;fill-rule:evenodd;fill:rgb(0%,0%,0%);fill-opacity:1;" d="M 309.554688 170.574219 L 106.128906 170.574219 L 134.433594 214.003906 L 309.554688 214.003906 Z M 309.554688 170.574219 "/>
<path style=" stroke:none;fill-rule:evenodd;fill:rgb(0%,0%,0%);fill-opacity:1;" d="M 1000.769531 231.964844 L 145.878906 231.964844 L 179.296875 284.195313 L 800.359375 284.195313 Z M 1000.769531 231.964844 "/>
<path style=" stroke:none;fill-rule:evenodd;fill:rgb(0%,0%,0%);fill-opacity:1;" d="M 421.738281 190.039063 L 417.726563 213.785156 L 330.386719 213.785156 L 334.066406 191.773438 L 389.679688 130.050781 L 347.058594 130.050781 L 350.960938 106.863281 L 432.964844 106.863281 L 429.542969 127.070313 L 372.53125 190.039063 Z M 421.738281 190.039063 "/>
<path style=" stroke:none;fill-rule:evenodd;fill:rgb(0%,0%,0%);fill-opacity:1;" d="M 639.410156 106.863281 L 621.519531 213.785156 L 597.820313 213.785156 L 577.28125 172.746094 L 573.488281 164.757813 L 570.433594 157.65625 L 568.191406 151.433594 L 566.679688 146.097656 L 566.863281 149.777344 L 566.570313 154.859375 L 565.6875 161.371094 L 556.890625 213.785156 L 530.832031 213.785156 L 548.683594 106.863281 L 577.539063 106.863281 L 589.242188 131.632813 L 599.363281 153.976563 L 602.789063 162.621094 L 605.179688 169.617188 L 604.921875 164.828125 L 605.4375 158.203125 L 607.058594 147.460938 L 613.867188 106.863281 Z M 639.410156 106.863281 "/>
<path style=" stroke:none;fill-rule:evenodd;fill:rgb(0%,0%,0%);fill-opacity:1;" d="M 723.070313 189.199219 L 718.910156 213.785156 L 640.109375 213.785156 L 657.960938 106.863281 L 734.808594 106.863281 L 730.871094 130.273438 L 685.046875 130.273438 L 682.324219 147.054688 L 720.785156 147.054688 L 716.886719 170.242188 L 678.386719 170.242188 L 675.257813 189.199219 Z M 723.070313 189.199219 "/>
<path style=" stroke:none;fill-rule:evenodd;fill:rgb(0%,0%,0%);fill-opacity:1;" d="M 809.304688 188.09375 L 805.074219 213.785156 L 732.011719 213.785156 L 749.863281 106.863281 L 782.289063 106.863281 L 768.746094 188.09375 Z M 809.304688 188.09375 "/>
<path style=" stroke:none;fill-rule:evenodd;fill:rgb(0%,0%,0%);fill-opacity:1;" d="M 893.8125 188.09375 L 889.578125 213.785156 L 816.519531 213.785156 L 834.371094 106.863281 L 866.796875 106.863281 L 853.25 188.09375 Z M 893.8125 188.09375 "/>
<path style=" stroke:none;fill-rule:evenodd;fill:rgb(0%,0%,0%);fill-opacity:1;" d="M 948.800781 216.472656 L 944.125 216.246094 L 939.636719 215.699219 L 935.292969 214.703125 L 931.097656 213.34375 L 927.046875 211.613281 L 923.183594 209.476563 L 919.464844 206.9375 L 915.894531 204.03125 L 912.621094 200.753906 L 909.785156 197.148438 L 907.394531 193.210938 L 905.441406 188.941406 L 903.894531 184.304688 L 902.828125 179.371094 L 902.167969 174.070313 L 901.945313 168.441406 L 902.203125 161.851563 L 902.9375 155.519531 L 904.152344 149.410156 L 905.847656 143.59375 L 908.054688 137.996094 L 910.742188 132.699219 L 913.90625 127.621094 L 917.550781 122.800781 L 921.601563 118.382813 L 925.941406 114.59375 L 930.582031 111.355469 L 935.511719 108.703125 L 940.777344 106.679688 L 946.296875 105.203125 L 952.148438 104.324219 L 958.296875 104.027344 L 963.191406 104.246094 L 967.898438 104.839844 L 972.359375 105.871094 L 976.628906 107.304688 L 980.640625 109.144531 L 984.429688 111.425781 L 988 114.078125 L 991.351563 117.164063 L 994.371094 120.554688 L 996.980469 124.234375 L 999.191406 128.136719 L 1001.03125 132.296875 L 1002.429688 136.746094 L 1003.460938 141.425781 L 1004.050781 146.320313 L 1004.230469 151.507813 L 1004.011719 158.171875 L 1003.269531 164.539063 L 1002.089844 170.683594 L 1000.398438 176.574219 L 998.269531 182.203125 L 995.621094 187.539063 L 992.488281 192.65625 L 988.878906 197.515625 L 984.910156 201.96875 L 980.640625 205.796875 L 976.070313 209.074219 L 971.179688 211.722656 L 966.019531 213.785156 L 960.578125 215.289063 L 954.835938 216.175781 Z M 951.375 182.828125 L 947.730469 182.535156 L 944.308594 181.617188 L 941.179688 180.070313 L 938.273438 177.898438 L 935.84375 175.136719 L 934.113281 171.863281 L 933.046875 168.035156 L 932.714844 163.691406 L 933.082031 158.539063 L 934.261719 153.789063 L 936.210938 149.449219 L 938.9375 145.507813 L 942.285156 142.234375 L 946.074219 139.878906 L 950.382813 138.480469 L 955.167969 137.996094 L 958.996094 138.328125 L 962.449219 139.324219 L 965.578125 140.980469 L 968.339844 143.265625 L 970.589844 146.0625 L 972.210938 149.300781 L 973.160156 152.90625 L 973.5 156.953125 L 973.089844 162.144531 L 971.949219 166.929688 L 970.039063 171.308594 L 967.390625 175.285156 L 964.070313 178.597656 L 960.320313 180.953125 L 956.085938 182.351563 Z M 951.375 182.828125 "/>
<path style=" stroke:none;fill-rule:evenodd;fill:rgb(0%,0%,0%);fill-opacity:1;" d="M 486.960938 191.953125 L 458.289063 191.953125 L 448.347656 213.785156 L 421.886719 213.785156 L 471.28125 106.863281 L 504.808594 106.863281 L 521.519531 213.785156 L 489.941406 213.785156 Z M 485.082031 169.839844 L 480.777344 138.882813 L 466.679688 169.839844 Z M 485.082031 169.839844 "/>
</g>
</svg>
