<?xml version="1.0" encoding="UTF-8"?>
<svg id="Capa_1" data-name="Capa 1" xmlns="http://www.w3.org/2000/svg" viewBox="0 0 997.98 364.26">
  <defs>
    <style>
      .cls-1 {
        fill: #fff;
      }
    </style>
  </defs>
  <g>
    <path class="cls-1" d="M179.23,174.5v51.94h111.45c-21.29,63.92-96.96,90.91-157.29,63.69-78.44-35.38-93.17-136.97-28.26-193.51,52.33-45.58,129.24-39.86,172.02,15.12h78.45c-25.06-50.01-69.35-91.21-124.21-105.74C70.42-36.62-68.37,157.05,36.41,290.8c59.99,76.58,168.54,97.51,250.28,41.48,51.59-35.36,79.26-95.29,75.41-157.78h-182.87Z"/>
    <path class="cls-1" d="M997.28,175.58h-178.54v50.86h108.21c-30.33,85.51-143.06,100.31-197.98,28.63-42.92-56.02-25.02-134.5,34.67-169.75,52.5-31,114.43-18.67,151.95,28.59h77.37C948.9,14.46,829.68-28.73,734,28.63c-165.34,99.12-89.94,346.91,100.42,335.23,95.53-5.86,171.74-92.29,162.86-188.27Z"/>
    <path class="cls-1" d="M557.38,232.91c123.09-37.69,99.34-216.23-26.97-225.1l-170.47.04v64.92h166.1c34.86,0,56.24,40.1,43.26,71.4-5.82,14.03-24.28,30.32-40.02,30.32h-114.16l161.77,187.2h82.78l-103.87-127.16c-.36-2.38.38-1.26,1.57-1.62Z"/>
  </g>
  <rect class="cls-1" x="138.55" y="318.49" width="73.37" height="2.39"/>
  <rect class="cls-1" x="794.05" y="318.49" width="69.38" height="2.39"/>
</svg>