<?xml version="1.0" encoding="UTF-8"?>
<svg id="Capa_1" data-name="Capa 1" xmlns="http://www.w3.org/2000/svg" viewBox="0 0 996.47 361.37">
  <path d="M353.06,110.6h-77.24c-50.71-64.78-152.31-59.32-194.37,11.97-52.95,89.74,28.16,193.92,127.94,171.15,34.8-7.94,68.39-35.13,78.85-69.69h-109.11v-49.69l181.34.69c6.68,85.43-51.27,160.48-133.35,180.72C83.53,391.17-44.26,249.07,14.73,110.95,74.31-28.53,265.79-38.07,343.79,91.24c3.47,5.75,7.82,12.96,9.27,19.36Z"/>
  <path d="M990.44,111.68h-78.32c-51.11-63.35-147.52-58.27-190.47,11.55-33.72,54.82-15.23,126.26,39.85,158.51,60.4,35.36,138.75,9.38,161.96-56.63h-105.87v-49.69h176.63c1.54.95,1.49,2.15,1.68,3.73,3.7,31.47-11.03,77.36-28.35,103.56-64.45,97.49-205.28,105.35-282.31,18.05-76.03-86.18-51.2-220.67,48.44-275.68,95.84-52.91,212.12-11.18,256.76,86.61Z"/>
  <path d="M658.78,359.07h-84.8l-159.34-184.2c6.12,0,12.97-1.44,18.86-1.66,29.98-1.11,64.92,2.94,94.02.03,41.47-4.14,59.53-58.8,28.65-86.97-5.13-4.68-20.87-13.49-27.56-13.49h-168.53c-1.1-.81-1.17-.94-1.18-2.21-.01-4.19.9-8.87.68-13.5-.49-10.23-.23-16.88,0-26.91.17-7.35-1.4-14.55-.05-22.2h176.63c15.24,0,43.17,13.04,55.54,22.24,66.2,49.23,59.92,156.15-14.29,194.02-7.18,3.66-15.17,5.36-22.33,8.98l103.69,125.86Z"/>
</svg>