<?xml version="1.0" encoding="UTF-8"?>
<svg id="Capa_1" data-name="Capa 1" xmlns="http://www.w3.org/2000/svg" viewBox="0 0 1000 1000">
  <defs>
    <style>
      .cls-1 {
        fill: #fff;
      }
    </style>
  </defs>
  <path class="cls-1" d="M332.2,737.72c-.28,11.33-1.56,21.32,12.33,22.63,9.39.88,26.03.67,35.58,0,14.85-1.04,14.27-10.37,12.33-22.63h-60.24Z"/>
  <path class="cls-1" d="M611.79,759.84c5.64,1.34,36.31,1.35,42.49.39,2.71-.42,9.21-4.18,9.21-6.92v-15.6h-60.24c-.13,8.13-1.65,19.71,8.53,22.13Z"/>
  <path class="cls-1" d="M562.97,592.55c-42.42,2.98-88.38-2.24-131.18-.14-12.31-1.75-10.65-16.6-15.36-17.98-3.23.72-40.28-5.21-40.15-2.88l5.08,26.35,49.22,7.55c56.01-1.95,113.41,4.36,168.74-4.52,3.27-.52,16.33-2.21,17.92-3.59l4.31-26.35-40.13,3.44c-6.44,1.93-1.05,16.9-18.45,18.12Z"/>
  <path class="cls-1" d="M884.77,601.33c3.7-14.57,6.46-29.48,8.3-44.4l68.45-10.23-.12-100.43-68.67-8.77c-4.57-32.36-13.04-64.19-25.79-94.22l54.75-42.83-51.29-88.63-62.65,26.73c-17.65-24.73-40.2-45.73-63.49-65.11l26.81-66.03-86.45-51.49-42.06,56.52c-27.24-10.28-55.32-19.07-84.46-22.26l-8.54-71.59-94.19-.47-2.22,1.01-9.01,70.59c-29.29,4.39-58.24,11.57-85.51,23.13l-41.97-57.12-85.51,51.76,25.29,66.59c-24.69,18.08-44.94,40.97-64.58,64.18l-61.89-26.05-50.44,87.37,53.54,43.05c-10.83,30.47-21.03,61.41-24.75,93.76l-69.83,10.46.12,100.43,68.78,8.67c3.31,31.62,12.17,62.36,23.3,91.98l-53.45,41.84,46.31,89.9,63.5-25.31c19.35,26.71,42.53,49.8,67.54,71.18l-25.17,62.76,83.77,51.55,41.28-54.64c28.23,11.02,57.43,19.62,87.51,24.03l8.71,69.81,2.53,1.77,95.19,1.08,10.48-73.15c29.99-3.32,58.76-12.87,86.77-23.53l40.97,55.73,83.99-52.64-24.9-63.46c25.9-20.33,48.16-44.66,67.96-70.91l62.8,25.73,47.29-89.83-53.59-41.08c4.24-15.77,10.53-31.37,14.61-47.42ZM746.56,697.62c-155.63,216.99-477.6,144.13-544.43-108.96-49.93-189.09,74.04-398.29,276.14-411.04,274.33-17.3,422.9,304.44,268.3,520Z"/>
  <path class="cls-1" d="M693.12,390.96c-.71.1-13.34-3.36-13.93-3.78-1.22-.87-.33-3.3-1.11-4.46l-13.05-2.05.67-9.15c-5.78-24.72-5.21-55.3-11.04-79.41-2.06-8.52-10.19-12.76-18.54-12.66-94.17.98-188.81-1.74-282.69,1.37-5.85,1.98-10.09,6.24-11.28,12.38-2.82,29.59-10.63,58.63-11.1,88.4l-12.83.08-1.03,5.97c-3.78-.02-9.16,2.83-12.47,2.71-2.47-.09-3.27-2.02-5.87-1.82-2.72.21-25.53,8.67-27.44,10.34-5.2,4.53-5.84,25.29.02,26.91,3.94,1.09,12.14-.8,16.67,0,1.37,8.63-9.66,3.89-15.85,7.28-2.08,1.14-3.88,4.13-4.34,6.42-1.48,7.34-1.39,48.84-.18,56.69.61,3.96,2.95,6.83,6.33,8.73,5.87,3.3,27.37,7.17,30.19,9.6,1.69,1.46.54,4.88,2.06,7.62,2.24,4.02,12.82,7.93,13.01,8.73-.95,36.11,1.11,72.4,0,108.5-.13,4.31-2.09,8.52-2.23,12.83-.6,19.59-1.8,47.84-.01,66.78.63,6.69,5.27,12.16,12.46,12.37,17.9.51,36.65-2.18,54.86-1.17,76.64,4.23,154.47,2.52,231.17,0,14.03-.46,29.03-.22,43.11,0,5.79.09,8.82,2.97,15.02-1.03,4.16-2.68,5.51-6.57,5.95-11.26,1.54-16.44,1.22-46.86,0-63.55-.43-5.93-2.81-11.58-3.31-17.12-1.34-14.9,1.03-30.44,1.17-45.18.19-20.39-.2-40.79-.09-61.17.19-.79,10.77-4.7,13.01-8.73,1.5-2.69.41-6.37,2.05-7.63,10.19-4.49,34.65-5.29,36.51-18.35,2.45-17.29-1.43-39.9-.13-57.76-1.71-7.64-13.98-7.25-20.21-7.22v-5.38h17.75c4.36-4.48,3.9-23.22-.25-26.94-1.64-1.47-25.66-10.11-28.25-10.3-3.4-.25-3.28,2.2-4.81,2.42ZM606.78,328.72c2.45-1.56,23.95-6.77,27.43-7.05,1.73-.13,2.95.59,4.55.84v25.28c-6.62,4.32-15.54,2.33-23.12,2.7-2.09.1-4.13,1.03-6.42,1.11-3.35.11-16.83,1.36-16.76-2.74l14.32-20.14ZM358.01,323.05c.43-1.4,2.25-1.62,3.6-1.56,3.18.13,24.38,5.16,26.9,6.55,2.79,1.54,14.95,18,14.75,20.81-1.55,4.36-12.41,2.89-16.79,2.76-5.68-.18-13.5-.72-19.18-1.26-2.82-.27-7.41-.73-9.28-2.55v-24.74ZM343.99,456.39c.5-17.01,2.15-34.62,3.26-51.6.33-5.06-.43-20.31,2.48-23.89.69-.85,3.41-2.03,4.59-2.38,92.98-2.7,186.48-.33,279.65-1.19,16.32,1.21,14.31,6.74,15.54,21.03,1.64,19.16,2.79,41.07,3.28,60.18.16,6.36,1.01,23.55-.53,28.61-1.43,4.7-7.8,6.61-12.17,7.2-75.36,10.11-161.98-2.6-238.56,2.47-13.88-2.28-29.01-.97-42.96-2.21-4.35-.39-11.19-1.76-13.52-5.84-1.9-3.33-1.23-26.7-1.06-32.37ZM326.89,503.74c-.15,3.84-3.62,7.42-4.55,11.13l-5.2.17c1.49-10.49-9.4-10.77-16.19-14.68.59-3.35-.71-8.48.03-11.45.33-1.35,3.59-.96,4.31-4.54,1.28-6.43.89-38.89.04-46.25-.87-7.55-6.93-6.82-7.26-8.51.09-6.12,2.36-4.07,4.6-5.89,3.89-3.16-.41-18.39,2.53-23.32,4.53-2.31,24.2-10.95,25.47-2.1l-3.82,89.37c-.25,5.81.22,11.14.03,16.07ZM385.73,698.34c-1.32,6.97-19.9,2.15-24.69,1.39-5.82-.93-23.9-3.63-27.71-6.71-.44-.36-3.29-3.98-3.29-4.24,0-4.27-.88-17.62,0-20.44.26-.83,1.75-1.63,2.71-1.66l47.82,9.22c1.05.49,1.58,1.3,1.93,2.37.56,1.71,3.42,19.08,3.23,20.08ZM609.74,681.27l-38.78,8.55c-5.16,2.07-3.92,9.78-14.59,11.23-36.74-2.27-77.73,3.34-113.97.14-13.53-1.2-11.2-9.54-16.36-11.61l-39.59-8.81-17.1-116.28c-3.8-17.3-8.59-34.4-19.96-48.34,1.99-1.46,33.5,6.06,37.94,7.76,11.16,4.27,15.48,9.44,21.67,19.21,7.5,11.83,11.66,32.05,28.01,32.22,39.97-2.32,83.13,2.95,122.71,0,2.98-.22,6.34-.49,9.09-1.66,6.44-2.75,15.59-23.94,20.64-30.99,13.41-18.72,36.57-21.98,57.89-26.54-9.51,12.26-14.26,24.74-17.76,39.77-8.87,38.05-10.36,79.37-17.91,117.62-.38,1.94-.7,6.77-1.94,7.74ZM666.73,687.7c-.7,3.5-3.87,5.81-6.95,7.03-6.46,2.56-29.43,6.76-36.74,7.35-4.64.37-10.77,1.02-11.27-4.69-.23-2.59,2.89-20.53,4.4-21.54l46.96-9.08c1.14-.5,3.6.74,3.6,1.56,0,5.2.88,14.93,0,19.36ZM691.41,437.02c-1.18,9.19-1.07,37,0,46.36.56,4.92,4.02,4.08,4.38,5.55.74,2.99-.6,8.12.04,11.49-7.53,3.33-17.03,4.31-17.39,14.53l-3.6.17c-.54-3.93-4.74-7.89-5-11.35-.2-2.72,1.16-5.04,1.07-7.42-.3-7.55-1.68-16.26-2.03-23.79-1.14-24.33-1.16-48.73-3.24-73.09,5.35-11.02,18.45-1.8,26.71.67,1.06,6.17-1.39,17.01,1.83,22.39,1.24,2.07,3.43,1.19,3.8,3.77,1.16,7.87-5.62,3.18-6.59,10.72Z"/>
  <path class="cls-1" d="M558.67,630.2c-39.64,2.78-82.58-2.09-122.57-.14-11.42-1.62-10.65-14.62-14.25-15.86-3.47.85-39.01-4.1-39.1-1.77l4.3,23.67c12.48,2.53,25.37,3.6,38.08,4.94,39.67,4.18,96.49,4.4,136.79,2.08,16.15-.93,33.54-5.11,49.76-6.71l3.44-24.54-39.09,2.33c-4.99,1.71-1.01,14.86-17.34,16.01Z"/>
  <path class="cls-1" d="M562.46,666.25l-125.32.41c-6.78-1.06-7.83-8.71-9.72-13.94l-1.25-.9c-10.13-.17-21.09-2.96-30.99-3.43-2.12-.1-7.22-1.05-7.05,1.65.44,6.9,3.2,14.77,3.39,21.91,1.27.42,2.63.56,3.94.87,53.41,12.71,107.62,6.47,162.15,7.94l48.75-8.8,3.38-23.52-38.05,3.37c-2.71.92-3.55,12.58-9.21,14.45Z"/>
</svg>