<?xml version="1.0" encoding="UTF-8"?>
<svg id="Capa_1" data-name="Capa 1" xmlns="http://www.w3.org/2000/svg" xmlns:xlink="http://www.w3.org/1999/xlink" viewBox="0 0 2172 724">
  <defs>
    <style>
      .cls-1 {
        fill: #fff;
      }

      .cls-2 {
        fill: url(#Degradado_sin_nombre_9);
      }
    </style>
    <linearGradient id="Degradado_sin_nombre_9" data-name="Degradado sin nombre 9" x1="23.6" y1="-959.48" x2="942.76" y2="-959.48" gradientTransform="translate(-1 1414.41)" gradientUnits="userSpaceOnUse">
      <stop offset="0" stop-color="#fff" stop-opacity="0"/>
      <stop offset="1" stop-color="#fff"/>
    </linearGradient>
  </defs>
  <g>
    <path class="cls-1" d="M265.27,121.98l-188.52.05c1.33,9.52,2.88,18.37,2.11,28.12-13.98,56.25-22.61,115.9-37.46,171.72-4.05,15.21-9.77,27.33-18.8,40.13h108.3l-1.99-25.88,16.41-78.24c7.59,1.09,18.23-1.28,25.37.09,1.46.28,2.47.78,3.16,2.15l24.47,101.89h102.46l-31.86-104.05c25.47-.19,36.88-9.49,43.67-33.32,5.12-17.94,15.68-60.22,9.62-76.78-7.94-21.7-37.24-24.59-56.95-25.87ZM224.81,211.16c-2.59,3.77-10.41,8.56-14.8,8.56h-55.21l-1.17-2.18,12.97-57.34c17.83,1.6,38.71-1.93,56.16.07,5.07.58,10.22,3.71,11.09,9.08,1.16,7.18-4.92,35.84-9.03,41.81Z"/>
    <path class="cls-1" d="M1716.7,188.95c-21.28-1.74-60.57-1.9-81.73,0-8.36.75-13.97,2.94-19.62,9.04-1.25,1.34-4.8,8.34-6.39,6.86-2.84-10.65-12.9-14.81-22.98-15.79-30.7-2.97-65.4,1.96-96.52-.18-12.69,1-18.45,6.46-27.04,14.9v-14.87h-83.88c3.14,11.04,2.41,22.02.92,33.3-3.52,26.6-12.79,61.24-19.49,87.76-4.89,19.36-9.16,35.94-21.78,52.01h101.93c-6.75-18.47-.18-37.9,3.7-56.29,4.35-20.58,9.17-43.58,14.87-63.7,2.23-7.89,3.65-16.29,12.23-19.62,6.05-2.35,33.69-2.54,40.39-1.13,13.54,2.85,9.61,19.21,7.94,29.3-3.88,23.41-12.32,57.79-19.16,80.65-3.58,11.96-8.81,21.06-16.45,30.8h103c-1.74-7.96-2.79-15.54-2-23.76,3.27-33.9,19.23-73.45,25.15-107.57,1.97-5.62,7.32-8.46,12.89-9.41,7.11-1.22,31.05-1.34,37.47.87,6.03,2.07,9.72,8.61,9.22,14.94-9.19,31.66-12.28,68.75-22.51,99.68-3.2,9.68-9.18,17.54-15.63,25.25h101.93c-1.95-5.82-3.41-13.3-3.06-19.5,1.8-31.91,19.79-71.62,22.21-104.16,2.15-28.91-3.86-46.81-35.63-49.4Z"/>
    <path class="cls-1" d="M954.2,344.88l-11.01,17.12h100.87c-2.52-10.65-2.44-19.19-.75-29.95,5.06-32.3,20.08-69.51,22.92-101.31,2.5-27.93-17.36-40.94-42.89-42.86-17.94-1.35-71.61-2.12-86.82,3.41-5.18,1.88-8.44,4.68-12.44,8.25l15.92-77.51h-91.32c1.03,9.03,3.16,17.73,1.99,26.94-14.82,58.21-22.83,121.45-39.93,178.8-3.86,12.95-9.25,23.41-17.27,34.23h101.93l-1.99-20.57c9.25-33.02,12.39-71.37,22.67-103.69,2.67-8.4,7.43-16.1,16.96-17.02,7-.67,31.73-.95,37.82.51,13.22,3.16,8.76,17.99,7.03,27.35-5.9,31.81-14.17,65.54-23.69,96.29Z"/>
    <path class="cls-1" d="M546.59,186.82c-46.55-2.88-96.17,1.87-143.02.3-30.03,2.39-48.85,17.07-56.81,46.19-4.69,17.13-19.52,79.54-18.23,94.06,2.59,29.31,25.43,33.44,50.25,34.68,44.27,2.22,90.42-1.76,134.89-.06,41.16-2.84,52.96-23.23,62.46-59.64,4.84-18.54,17.36-63.93,16.65-81.01-1.13-26.77-23.39-33.11-46.19-34.53ZM489.07,299.16c-2.56,10.09-4,22.97-14.46,28.01-8.12,3.91-40.31,4.4-48.77,1.63-7.57-2.48-10.31-8.56-9.3-16.17,6.75-24.42,9.65-50.2,16.84-74.47,3.14-10.59,8.2-18.59,20.05-20.3,7.5-1.08,28.26-1.2,35.73-.18,8.79,1.2,14.58,7.16,14.35,16.21-5.22,21.63-8.98,43.71-14.45,65.27Z"/>
    <path class="cls-1" d="M1097.15,357.22c15.39,7.02,71.93,6.03,90.82,4.83,10.5-.67,19.52-2.73,28-9.16l10.71-9.99c-2.51,6.32.89,12.54,0,19.1h82.82c.07-11.82-.48-23.72,1.19-35.44,4.28-30,26.29-84.98,20.64-112.21-3.18-15.32-20.45-24.45-35.06-25.46l-173.76.67-13.68,38.65c8.98-2.31,17.7-6.57,27.09-7.41,32.64-2.91,70.33,1.54,103.31.71,13.99,3.58,9.13,21.87-3.61,23.6-36.58,4.96-112.39-12.8-136.79,19.3-8.91,11.72-19.21,55.87-17.5,70.4,1.15,9.75,6.86,18.32,15.82,22.41ZM1171.78,295.94c3.55-11.75,6.38-16.49,19.34-18.88h45.66c1.01.81,1.24.89,1.19,2.19-.16,4.41-5.9,25.31-7.55,30.74-2.52,8.3-4.81,14.04-13.6,17.2-7.6,2.73-36.84,3.36-43.61-.36-9.72-5.34-4.02-22.31-1.43-30.88Z"/>
    <path class="cls-1" d="M1813.29,362.05l159.32-.04,2.89-2.42,14.62-37.93c-10.28,2.31-19.49,6.68-30.22,7.47-25.08,1.85-67.45,1.96-92.46,0-23.42-1.84-14.96-19.7-11.17-35.67l142.29-.52c5.49-40.53,35.89-99.92-29.11-104.05-42.07-2.68-87.07,1.98-129.45.18-35.52,4.4-47.99,22.74-56.43,55.06-5.21,19.95-17.45,67.83-15.27,86.44,2.86,24.39,23.88,29.91,44.97,31.48ZM1863.88,254.38c.49-6.18,5.07-25.95,9.54-29.8,1.09-.94,3.55-2.21,4.94-2.49,6.41-1.29,34.14-1.11,41.19-.27,8.38,1,10.42,6.78,10.11,14.39-.12,2.78-3.76,21.57-4.81,22.81-1.7,2.01-25.98.92-30.85,1-6.53.11-12.91,1.7-20.12,1.09-6.22-.53-10.55.11-10-6.74Z"/>
    <path class="cls-1" d="M724.37,218.05c1.25-1.7,3.02-1.4,4.8-1.57,17.47-1.72,43.53-.45,61.69,0,2.16.05,4.07.97,6.2,1.04,1.35-.4,1.31-1.56,1.72-2.59,1.26-3.16,5.92-24.91,5.95-28.07.01-1.26-.12-1.39-1.17-2.18h-72.73l8.09-37.08-1.16-2.16-83.76,6.46c-.96.2-1.22.82-1.53,1.65-3.05,8.17-3.22,22.09-5.69,30.93-9.75,4.14-20.59-2.93-30.12,2.28l-6.86,31.88,29.74-.51-22.36,101.86c-1.28,32.8,18.63,40.52,47.25,42.04,34.49,1.83,70.54-1.52,105.2.03l1.66-.73,16.88-41.81c-6.48,1.09-12.02,4.98-18.28,6.66-10.92,2.92-43.73,3.15-55.51,1.83-9.69-1.08-12.35-6.93-10.85-16.17l20.86-93.81Z"/>
    <path class="cls-1" d="M2105.86,362l-2.16-20.75,45.7-219.22h-88.66c-1.01.81-1.24.88-1.19,2.19.17,4.29,3.28,11.44,2.87,16.37-11.09,57.78-21.65,116.15-34.58,173.64-2.24,9.97-4.35,20.34-8.52,29.71-2.79,6.26-7.41,11.75-10.08,18.06h96.62Z"/>
    <path class="cls-1" d="M1106.17,394.92h-98.22v18.58c-7.73,24.54-10.4,52.84-18.57,76.99-1.86,5.49-4.56,10.22-7.97,14.86h48.84c-2.98-16.13,5.14-32.16,8.05-47.84l13.74,1.1,10.06,46.74h46.72l-12.58-46.22c2.94-2.44,7.04-1.66,10.82-3.84,2.18-1.26,5.99-5.49,7.11-7.75,2.21-4.45,8.64-31.4,8.49-36.12-.24-7.34-9.39-16.49-16.5-16.49ZM1073.77,437.9c-.63.47-5.5,2.68-5.82,2.68-6.28,0-16.69.95-22.3,0-.58-.1-1.65-1.06-2.49-1.23l5.02-25.76c9.52-3.45,19.31.15,29.15-.44,5.39,1.83-.05,22.1-3.56,24.76Z"/>
    <path class="cls-1" d="M1977.8,395.04c-14.33-1.74-57.75-1.86-71.81.16-11.37,1.63-21.76,10.3-25.73,20.98-4.6,12.38-14.02,51.36-15.31,64.33-1.4,14.08,6.49,23.67,20.56,24.88,16.87,1.45,51.3,1.64,67.98-.05,16.18-1.63,25.33-14.18,29.75-28.64,3.51-11.47,14.2-54.28,13.14-64.14-1.04-9.66-9.13-16.37-18.58-17.52ZM1955.71,420.42c-4.88,17.36-7.11,36.57-12.17,53.74-1.11,3.78-2.47,9.9-6.09,11.96-3.4,1.93-26.09,1.93-29.48,0-3.25-1.85-3.08-4.34-2.71-7.74l14.95-60.47c1.6-2.45,3.83-4.41,6.8-4.88,3.71-.59,24.79-.58,26.74,1.28,1,.95,2.3,4.5,1.95,6.12Z"/>
    <path class="cls-1" d="M1644.84,413.3c-2.63,6.75-7.36,27.01-8.18,34.29-1.32,11.59.2,19.99,13.28,21.54,12.95,1.53,27.9-1.08,41.08.33,4.61,1.36,2.54,10.3,1.29,13.6-1.68,4.45-5.26,4.94-9.53,5.34-10.06.93-28.05.72-38.25-.05-5.38-.41-11.21-1.94-16.46-3.17l-1.07,20.17h81.23c6.16,0,18.28-9.24,21.29-14.81,3.24-5.98,9.97-33.85,10.82-41.2,1.09-9.34-.47-17.33-11.13-19.12-9.66-1.62-40.57,2.01-46.29-1.49-3.91-2.39-1.89-13.01,2.54-15.17,1.9-.93,6.63-1.51,8.94-1.68,16.12-1.24,35.96-.64,51.54,3.22v-20.17h-80.17c-7.26,0-18.29,11.67-20.91,18.38Z"/>
    <path class="cls-1" d="M2028.69,397.91c-5.34,2.66-9.91,7.75-12.22,13.26-2.96,7.08-8.11,29.73-9.08,37.63-1.28,10.38.66,18.48,12.22,20.16,13.07,1.9,28.63-1.01,41.98.49,4.24,1.25,3.16,9.09,2.16,12.35-1.58,5.17-5.58,6.14-10.4,6.59-11,1.02-38.19,1.02-48.4-1.59-2.26-.58-4.27-1.68-6.32-2.7l-1.07,21.24h81.23c5.52,0,15.81-7.17,19.04-11.75,4.67-6.6,9.55-30.17,10.93-38.97,1.06-6.74,3.01-14.96-2.37-20.42-8.43-8.58-39.52-1.9-51.55-4.72-4.33-1.03-3.71-7.8-2.66-11.26,1.27-4.15,5.72-5.87,9.61-6.31,9.08-1.03,27.83-.75,37.15.02,5.51.46,11.01,2.46,16.47,3.17v-20.17h-79.1c-.41,0-6.63,2.5-7.62,2.99Z"/>
    <path class="cls-1" d="M1357.82,394.92h-97.16c.5,1.26.98,2.26,1.09,3.68,1.1,14.27-16.06,86.96-22.84,100.39-1.04,2.07-2.51,3.88-3.72,5.84-.28,3.24,1.15.51,1.58.51h46.19c-1.6-13.75,3.52-25.94,5.36-39.23,25.34-3.11,66.57,10.65,77.4-20.82,2.3-6.67,7.86-28.64,7.55-34.94-.4-8.02-7.83-14.36-15.45-15.44ZM1325.98,441.65c-1.41,3-6.43,7.42-9.57,7.42-4.37,0-18.38.89-21.24,0-.52-.16-1.25-1.16-1.44-1.76-1.56-4.85,6.28-27.43,7.22-33.87,5.25-.09,27.92-2.59,29.61,2.36,1.2,3.51-2.76,21.98-4.59,25.86Z"/>
    <path class="cls-1" d="M1225.1,439.51h-41.94l5.41-26.44c17.25-.77,35.92-3.44,52.47,1.99,2.45-.19,1.45-16.91,2.64-20.15h-96.62c2.81,7.7,1.85,13.62.54,21.25-3.68,21.44-10.49,51.54-17,72.19-2.03,6.45-4.06,11.42-7.96,16.99h97.69l7.42-21.24c-2.91,1.29-10.54,4.25-13.26,4.25h-40.35c-.37,0-1.26-1.18-1.44-1.76-.7-2.19,4.95-27.72,6.16-28.56,16.59-2.34,33.46-2.16,49.97.6l4.24-21.24c-.25-.33-6.9,2.12-7.95,2.12Z"/>
    <path class="cls-1" d="M1516.56,394.92h-26.55c1.57,4.12,1.42,9.78.95,14.22-1.6,15.04-10.37,54.21-15.52,68.37-1.59,4.38-3.97,8.04-8.76,9.29-5.06,1.32-36.1,1.33-41.91.44-9.13-1.41-6.57-10.67-5.38-16.94,3.45-18.17,9.2-42.17,14.42-59.9,1.71-5.81,3.82-10.09,6.29-15.47h-47.78c1.6,4.43,1.42,10.5.93,15.26-2.13,20.95-18.13,58.87-15.52,77.37,1.39,9.82,8.69,16.43,18.39,17.7,14.7,1.92,48.26,1.25,63.66.14,46.21-3.34,36.26-74.74,53.01-105.2,1.09-1.98,2.56-3.42,3.75-5.28Z"/>
    <path class="cls-1" d="M1576.22,413.16c3-2.68,46.25-1.9,52.89,1.93l1.07-20.17h-94.5c.54,4.57,1.34,8.6,1.09,13.32-.68,12.85-16.49,76.69-21.8,88.62-1.36,3.06-4.25,5.23-4.78,8.5h96.62l7.42-21.24c-13.6,5.18-32.68,5.48-47.28,4.29-2.95-.24-8.56-.57-7.76-4.55l6.31-26.18c16.74-.6,33.11-2.05,49.73.88l4.31-20.09-48.84,1.06,5.51-26.36Z"/>
    <path class="cls-1" d="M1866.96,394.92h-101.93l-7.42,18.6c-1.13,3.62,6.1-.55,6.89-.55h28.14l-18.57,78.58-6.91,13.8h47.78v-16.46l18.53-76.71c10.8,2.24,21.88-1.19,32.44,2.91l1.07-20.17Z"/>
  </g>
  <rect class="cls-2" x="22.6" y="399.72" width="919.16" height="110.43" transform="translate(964.36 909.86) rotate(180)"/>
</svg>